<svg xmlns="http://www.w3.org/2000/svg" width="24" height="24" fill="none" style="background-color:#000"><path fill="#fff" fill-rule="evenodd" d="M20.707 3.298a.989.989 0 0 1 .016 1.398L10.36 15.059a.989.989 0 0 1-1.398-.016.989.989 0 0 1-.016-1.398L19.309 3.281a.989.989 0 0 1 1.398.017ZM6.828 17.168a1 1 0 0 1 0 1.415l-2.12 2.12a1 1 0 0 1-1.415-1.413l2.121-2.122a1 1 0 0 1 1.414 0Z" clip-rule="evenodd"/><path fill="#fff" fill-rule="evenodd" d="M3.298 3.298a.989.989 0 0 0-.016 1.398l10.363 10.363a.989.989 0 0 0 1.398-.016.989.989 0 0 0 .016-1.398L4.696 3.281a.989.989 0 0 0-1.398.017ZM17.177 17.168a1 1 0 0 0 0 1.415l2.12 2.12a1 1 0 0 0 1.415-1.413l-2.121-2.122a1 1 0 0 0-1.415 0Z" clip-rule="evenodd"/></svg>